<?xml version="1.0" encoding="utf-8"?>
<!-- Generator: Adobe Illustrator 22.0.0, SVG Export Plug-In . SVG Version: 6.00 Build 0)  -->
<svg version="1.1" id="Layer_1" xmlns="http://www.w3.org/2000/svg" xmlns:xlink="http://www.w3.org/1999/xlink" x="0px" y="0px"
	 viewBox="0 0 330 330" style="enable-background:new 0 0 330 330;" xml:space="preserve">
<style type="text/css">
	.st0{fill:#FFFFFF;}
</style>
<g id="XMLID_88_">
	<path id="XMLID_89_" class="st0" d="M304.4,139.4L165,278.8L25.6,139.4c-5.9-5.9-15.4-5.9-21.2,0c-5.9,5.9-5.9,15.4,0,21.2l150,150
		c2.8,2.8,6.6,4.4,10.6,4.4s7.8-1.6,10.6-4.4l150-150c5.9-5.9,5.9-15.4,0-21.2C319.7,133.5,310.3,133.5,304.4,139.4z"/>
	<path id="XMLID_90_" class="st0" d="M154.4,190.6c2.8,2.8,6.6,4.4,10.6,4.4s7.8-1.6,10.6-4.4l150-150c5.9-5.9,5.9-15.4,0-21.2
		c-5.9-5.9-15.4-5.9-21.2,0L165,158.8L25.6,19.4c-5.9-5.9-15.4-5.9-21.2,0s-5.9,15.4,0,21.2L154.4,190.6z"/>
</g>
</svg>
